<?xml version="1.0" standalone="no"?>
<!DOCTYPE svg PUBLIC "-//W3C//DTD SVG 20010904//EN"
 "http://www.w3.org/TR/2001/REC-SVG-20010904/DTD/svg10.dtd">
<svg version="1.0" xmlns="http://www.w3.org/2000/svg"
 width="208.000000pt" height="197.000000pt" viewBox="0 0 208.000000 197.000000"
 preserveAspectRatio="xMidYMid meet">

<g transform="translate(0.000000,197.000000) scale(0.100000,-0.100000)"
fill="#000000" stroke="none">
<path d="M1467 1659 c-153 -62 -382 -284 -606 -589 -137 -187 -135 -184 -153
-178 -9 4 -30 44 -48 90 -42 109 -53 122 -107 114 -58 -8 -167 -53 -199 -83
-26 -24 -27 -26 -21 -121 4 -73 14 -123 40 -204 43 -128 97 -247 123 -269 68
-57 248 -50 320 13 18 16 47 53 64 82 68 119 331 452 680 859 107 126 200 238
207 250 7 14 8 28 2 39 -15 27 -234 25 -302 -3z"/>
</g>
</svg>
